<svg xmlns="http://www.w3.org/2000/svg" width="424" height="15.56" viewBox="0 0 424 15.56">
  <metadata><?xpacket begin="﻿" id="W5M0MpCehiHzreSzNTczkc9d"?>
<x:xmpmeta xmlns:x="adobe:ns:meta/" x:xmptk="Adobe XMP Core 5.6-c138 79.159824, 2016/09/14-01:09:01        ">
   <rdf:RDF xmlns:rdf="http://www.w3.org/1999/02/22-rdf-syntax-ns#">
      <rdf:Description rdf:about=""/>
   </rdf:RDF>
</x:xmpmeta>
                                                                                                    
                                                                                                    
                                                                                                    
                                                                                                    
                                                                                                    
                                                                                                    
                                                                                                    
                                                                                                    
                                                                                                    
                                                                                                    
                                                                                                    
                                                                                                    
                                                                                                    
                                                                                                    
                                                                                                    
                                                                                                    
                                                                                                    
                                                                                                    
                                                                                                    
                                                                                                    
                           
<?xpacket end="w"?></metadata>
<defs>
    <style>
      .cls-1 {
        fill: #41382d;
        fill-rule: evenodd;
      }
    </style>
  </defs>
  <path id="title_line" data-name="title line" class="cls-1" d="M1161.5,1276l-7-7h-180l-3,3-3-3h-0.723l-7.278,7.28-7.278-7.28H952.5l-3,3-3-3h-187l-7,7-7.5-7.5,7.5-7.5,7,7h187l3-3,3,3h0.723l7.278-7.28,7.278,7.28H968.5l3-3,3,3h180l7-7,7.5,7.5Zm-409-12.69-5.19,5.19,5.19,5.19,5.19-5.19Zm403.81,5.19,5.19,5.19,5.19-5.19-5.19-5.19Zm5.19,3.5-3.5-3.5,3.5-3.5,3.5,3.5ZM749,1268.5l3.5-3.5,3.5,3.5-3.5,3.5Z" transform="translate(-745 -1260.72)"/>
</svg>
