<svg xmlns="http://www.w3.org/2000/svg" width="324" height="34" viewBox="0 0 324 34">
  <metadata><?xpacket begin="﻿" id="W5M0MpCehiHzreSzNTczkc9d"?>
<x:xmpmeta xmlns:x="adobe:ns:meta/" x:xmptk="Adobe XMP Core 5.6-c138 79.159824, 2016/09/14-01:09:01        ">
   <rdf:RDF xmlns:rdf="http://www.w3.org/1999/02/22-rdf-syntax-ns#">
      <rdf:Description rdf:about=""/>
   </rdf:RDF>
</x:xmpmeta>
                                                                                                    
                                                                                                    
                                                                                                    
                                                                                                    
                                                                                                    
                                                                                                    
                                                                                                    
                                                                                                    
                                                                                                    
                                                                                                    
                                                                                                    
                                                                                                    
                                                                                                    
                                                                                                    
                                                                                                    
                                                                                                    
                                                                                                    
                                                                                                    
                                                                                                    
                                                                                                    
                           
<?xpacket end="w"?></metadata>
<defs>
    <style>
      .cls-1 {
        fill: #f5c984;
        fill-rule: evenodd;
      }
    </style>
  </defs>
  <path id="logo" class="cls-1" d="M355.925,50.673H339.776l2.018-2.022H314.909A47.65,47.65,0,0,0,313.86,43.6H364ZM321.607,66.85l2.019-2.022h12.112l-8.075,8.088h-14.4a44.79,44.79,0,0,0,1.479-6.066h6.86Zm-26.163,8.139q-4.7,0-7-2.5T285.965,64.5l6.253-.958a10.972,10.972,0,0,0,.747,4.519,2.265,2.265,0,0,0,2.121,1.406q1.853,0,1.852-2.394a6.241,6.241,0,0,0-.478-2.464,7.159,7.159,0,0,0-1.175-1.925,19.593,19.593,0,0,0-1.952-1.875l-2.927-2.534a21.962,21.962,0,0,1-1.753-1.676,12.9,12.9,0,0,1-1.364-1.8,7.823,7.823,0,0,1-.986-2.324,11.63,11.63,0,0,1-.318-2.813,8.207,8.207,0,0,1,2.469-6.383A9.737,9.737,0,0,1,295.225,41a10.466,10.466,0,0,1,2.679.319,7.37,7.37,0,0,1,2.031.838,5.774,5.774,0,0,1,1.454,1.307,7.991,7.991,0,0,1,1,1.576A9.968,9.968,0,0,1,303,46.812a13.481,13.481,0,0,1,.339,1.805q0.088,0.818.129,1.756l-6.313.818q-0.019-.838-0.05-1.386T297,48.637a4.836,4.836,0,0,0-.219-1,3.118,3.118,0,0,0-.369-0.708,1.273,1.273,0,0,0-.577-0.469,2,2,0,0,0-.827-0.12,1.685,1.685,0,0,0-1.464.808,3.194,3.194,0,0,0-.507,1.766,5.941,5.941,0,0,0,.229,1.705,4.442,4.442,0,0,0,.8,1.486,13.179,13.179,0,0,0,.926,1.077q0.359,0.359,1.195,1.117l2.808,2.474a24.575,24.575,0,0,1,1.992,1.985,16.574,16.574,0,0,1,1.593,2.154,9.715,9.715,0,0,1,1.145,2.653,11.922,11.922,0,0,1,.388,3.1,8.024,8.024,0,0,1-2.39,5.954A8.533,8.533,0,0,1,295.444,74.989ZM268.639,41.456h7.289V69.582H283.5V74.53H268.639V41.456Zm-18.043,0h7.289V69.582h7.567V74.53H250.6V41.456ZM239.424,67.508H234.6l-1.115,7.022h-6.911l6.254-33.074h8.245L247.29,74.53h-6.731Zm-2.43-17.175L235.241,63.14h3.525ZM214.41,74.53H204.254V41.456h8.6a25.573,25.573,0,0,1,3.3.19,12.205,12.205,0,0,1,2.868.748,6.76,6.76,0,0,1,2.35,1.486,6.59,6.59,0,0,1,1.483,2.524,10.058,10.058,0,0,1,.5,3.431v0.279q-0.079,5.786-4.839,6.643a6.14,6.14,0,0,1,4.341,2.394,9.358,9.358,0,0,1,1.534,5.566v0.219q-0.021,4.847-2.529,7.2Q219.269,74.53,214.41,74.53ZM212.7,46.363h-1.155v8.318h1.394q2.349,0,3.2-1.057a5.356,5.356,0,0,0,.846-3.351Q216.979,46.363,212.7,46.363Zm3.684,14.3a4.263,4.263,0,0,0-3.406-1.157h-1.433v9.914h1.533a4.11,4.11,0,0,0,3.326-1.157,5.692,5.692,0,0,0,.956-3.651A6.188,6.188,0,0,0,216.382,60.666Zm-40.647-19.21h7.289V69.582h7.568V74.53H175.735V41.456Zm-18.222,0H172.35v4.987H164.8v8.179h5.756v5.087H164.8v9.874h7.628V74.53H157.513V41.456Zm-18.222,0h14.837v4.987H146.58v8.179h5.756v5.087H146.58v9.874h7.627V74.53H139.291V41.456ZM131.445,74.53h-7.309V46.861h-5.078V41.456h17.4v5.406h-5.018V74.53Zm-22.544.459q-4.7,0-7-2.5T99.421,64.5l6.254-.958a10.992,10.992,0,0,0,.746,4.519,2.267,2.267,0,0,0,2.121,1.406q1.852,0,1.853-2.394a6.259,6.259,0,0,0-.478-2.464,7.159,7.159,0,0,0-1.175-1.925,19.7,19.7,0,0,0-1.952-1.875l-2.928-2.534A22.1,22.1,0,0,1,102.11,56.6a12.82,12.82,0,0,1-1.364-1.8,7.8,7.8,0,0,1-.986-2.324,11.6,11.6,0,0,1-.319-2.813,8.2,8.2,0,0,1,2.47-6.383A9.737,9.737,0,0,1,108.682,41a10.458,10.458,0,0,1,2.678.319,7.365,7.365,0,0,1,2.032.838,5.809,5.809,0,0,1,1.454,1.307,7.984,7.984,0,0,1,.995,1.576,9.889,9.889,0,0,1,.618,1.775,13.467,13.467,0,0,1,.338,1.805q0.09,0.818.13,1.756l-6.313.818q-0.021-.838-0.05-1.386t-0.11-1.167a4.708,4.708,0,0,0-.219-1,3.155,3.155,0,0,0-.368-0.708,1.275,1.275,0,0,0-.578-0.469,1.99,1.99,0,0,0-.826-0.12,1.684,1.684,0,0,0-1.464.808,3.187,3.187,0,0,0-.508,1.766,5.941,5.941,0,0,0,.229,1.705,4.445,4.445,0,0,0,.8,1.486,12.984,12.984,0,0,0,.926,1.077q0.359,0.359,1.2,1.117l2.808,2.474a24.391,24.391,0,0,1,1.991,1.985,16.487,16.487,0,0,1,1.594,2.154,9.715,9.715,0,0,1,1.145,2.653,11.965,11.965,0,0,1,.388,3.1,8.028,8.028,0,0,1-2.39,5.954A8.533,8.533,0,0,1,108.9,74.989ZM68.262,64.827H80.374l2.019,2.022h6.861a44.791,44.791,0,0,0,1.478,6.066h-14.4ZM62.206,48.651l2.019,2.022H48.075L40,43.6H90.14a47.749,47.749,0,0,0-1.049,5.055H62.206Zm5.047,6.066H88.5c-0.035.833-.056,1.675-0.056,2.527s0.021,1.695.056,2.528H77.346l2.019,2.022H60.187l-8.075-8.088H64.224Zm259.4,5.055H315.5c0.035-.833.056-1.675,0.056-2.528s-0.021-1.694-.056-2.527h21.253l3.028-1.011h12.112l-8.075,8.088H324.635Z" transform="translate(-40 -41)"/>
</svg>
